<svg xmlns="http://www.w3.org/2000/svg" width="134" height="89" fill="none" viewBox="0 0 134 89"><path fill="#fff" d="M92.7 88.192q-2.943 0-4.576-1.6-1.6-1.632-1.6-4.576v-7.68h-3.008v-3.744h.32q1.28 0 1.984-.672.705-.672.705-1.952v-1.344h4.191v3.968h4v3.744h-4v7.456q0 .864.288 1.472.321.608.96.928.672.32 1.697.32.224 0 .511-.032.32-.032.609-.064V88q-.449.064-1.025.128a10 10 0 0 1-1.055.064M73.68 88.384q-2.593 0-4.672-1.184a8.95 8.95 0 0 1-3.232-3.264q-1.185-2.08-1.184-4.672 0-2.592 1.184-4.64a8.7 8.7 0 0 1 3.232-3.232q2.08-1.184 4.672-1.184 1.856 0 3.456.672a8.1 8.1 0 0 1 2.752 1.792 6.36 6.36 0 0 1 1.696 2.688l-3.68 1.6a4.32 4.32 0 0 0-1.632-2.112q-1.12-.8-2.592-.8-1.377 0-2.464.672-1.056.672-1.664 1.856-.608 1.185-.608 2.72 0 1.536.608 2.72.608 1.185 1.664 1.856 1.087.672 2.464.672 1.503 0 2.624-.8a4.37 4.37 0 0 0 1.6-2.144l3.68 1.664a7.15 7.15 0 0 1-1.664 2.656 8.5 8.5 0 0 1-2.752 1.824q-1.6.64-3.488.64M53.958 88.384q-2.688 0-4.704-1.216a8.47 8.47 0 0 1-3.136-3.296q-1.12-2.08-1.12-4.608 0-2.625 1.12-4.64 1.152-2.048 3.104-3.232 1.984-1.184 4.416-1.184 2.048 0 3.584.672a7.64 7.64 0 0 1 2.656 1.856 8.3 8.3 0 0 1 1.664 2.72q.576 1.504.576 3.264 0 .448-.064.928-.032.48-.16.832h-13.44v-3.2h11.072l-1.984 1.504q.288-1.472-.16-2.624a3.64 3.64 0 0 0-1.408-1.824q-.96-.672-2.336-.672-1.312 0-2.336.672-1.024.64-1.568 1.92-.512 1.248-.384 3.04-.128 1.6.416 2.848.576 1.215 1.664 1.888 1.12.672 2.56.672 1.44 0 2.432-.608a4.35 4.35 0 0 0 1.6-1.632l3.392 1.664q-.512 1.248-1.6 2.208-1.088.96-2.592 1.504-1.472.544-3.264.544M22.562 88V74.336H19.49v-3.744h3.072v-.576q0-1.984.8-3.36a5.45 5.45 0 0 1 2.304-2.144q1.472-.735 3.488-.736.384 0 .832.064.48.032.8.096v3.616a3 3 0 0 0-.608-.064 4 4 0 0 0-.48-.032q-1.408 0-2.176.64-.768.607-.768 1.92v.576h7.616v3.744h-7.616V88zm12.672 0V74.336h-3.072v-3.744h3.072v-.576q0-1.984.8-3.36a5.26 5.26 0 0 1 2.272-2.144q1.504-.735 3.52-.736.384 0 .832.064.48.032.768.096v3.616a2.7 2.7 0 0 0-.576-.064 4 4 0 0 0-.48-.032q-1.408 0-2.176.64-.768.607-.768 1.92v.576h3.84v3.744h-3.84V88zM9.208 88.384q-2.688 0-4.704-1.216a8.47 8.47 0 0 1-3.136-3.296q-1.12-2.08-1.12-4.608 0-2.625 1.12-4.64 1.152-2.048 3.104-3.232 1.985-1.184 4.416-1.184 2.048 0 3.584.672a7.64 7.64 0 0 1 2.656 1.856 8.3 8.3 0 0 1 1.664 2.72q.576 1.504.576 3.264 0 .448-.064.928-.032.48-.16.832H3.704v-3.2h11.072l-1.984 1.504q.288-1.472-.16-2.624a3.64 3.64 0 0 0-1.408-1.824q-.96-.672-2.336-.672-1.312 0-2.336.672-1.024.64-1.568 1.92-.512 1.248-.384 3.04-.128 1.6.416 2.848.576 1.215 1.664 1.888 1.12.672 2.56.672 1.44 0 2.432-.608a4.35 4.35 0 0 0 1.6-1.632l3.392 1.664q-.512 1.248-1.6 2.208-1.088.96-2.592 1.504-1.472.544-3.264.544M125.337 63.04q-1.951 0-3.616-.64a8.7 8.7 0 0 1-2.88-1.792 6.7 6.7 0 0 1-1.728-2.656l3.904-1.472q.384 1.215 1.504 1.952 1.152.768 2.816.768 1.28 0 2.24-.48a3.5 3.5 0 0 0 1.536-1.408q.544-.896.544-2.176v-3.968l.8.96q-.895 1.568-2.4 2.368-1.504.8-3.424.8-2.432 0-4.352-1.12a8 8 0 0 1-3.008-3.072q-1.088-1.952-1.088-4.384 0-2.464 1.088-4.384a7.9 7.9 0 0 1 2.976-3.008q1.888-1.12 4.288-1.12 1.953 0 3.424.832 1.504.8 2.496 2.336l-.576 1.056v-3.84h3.968v16.544q0 2.273-1.12 4.064-1.088 1.792-3.008 2.816-1.887 1.024-4.384 1.024m-.192-11.616q1.344 0 2.336-.576a4.3 4.3 0 0 0 1.6-1.664q.576-1.056.576-2.432 0-1.344-.608-2.4a4.23 4.23 0 0 0-1.6-1.696q-.992-.608-2.304-.608-1.311 0-2.368.608a4.4 4.4 0 0 0-1.664 1.696q-.576 1.056-.576 2.4 0 1.344.576 2.4.609 1.056 1.632 1.664 1.056.608 2.4.608M97.92 56V38.592h3.937v3.424l-.32-.608q.607-1.568 1.984-2.368 1.407-.832 3.264-.832 1.92 0 3.392.832a5.87 5.87 0 0 1 2.336 2.336q.831 1.472.832 3.424V56h-4.192V45.792q0-1.152-.448-1.984a3.14 3.14 0 0 0-1.248-1.28q-.768-.48-1.824-.48-1.025 0-1.824.48-.801.448-1.248 1.28-.448.832-.448 1.984V56zM89.858 56V38.592h4.192V56zm0-19.36v-4.48h4.192v4.48zM77.89 56V38.592h3.936v3.872l-.32-.576q.607-1.952 1.888-2.72 1.312-.768 3.135-.768h1.025v3.712h-1.505q-1.791 0-2.88 1.12-1.087 1.088-1.087 3.072V56zM66.552 56.384q-2.688 0-4.704-1.216a8.47 8.47 0 0 1-3.136-3.296q-1.12-2.08-1.12-4.608 0-2.625 1.12-4.64 1.151-2.048 3.104-3.232 1.983-1.184 4.416-1.184 2.048 0 3.584.672a7.6 7.6 0 0 1 2.656 1.856 8.3 8.3 0 0 1 1.664 2.72q.576 1.504.576 3.264 0 .448-.064.928a3 3 0 0 1-.16.832h-13.44v-3.2H72.12l-1.984 1.504q.287-1.472-.16-2.624a3.64 3.64 0 0 0-1.408-1.824q-.96-.672-2.336-.672-1.313 0-2.336.672-1.025.64-1.568 1.92-.513 1.248-.384 3.04-.129 1.6.416 2.848.576 1.215 1.664 1.888 1.12.672 2.56.672 1.44 0 2.432-.608a4.35 4.35 0 0 0 1.6-1.632l3.392 1.664q-.513 1.248-1.6 2.208-1.089.96-2.592 1.504-1.473.544-3.264.544M45.731 56l-6.848-17.408h4.576l4.96 13.696h-1.696l4.992-13.696h4.576L49.443 56zM28.433 56.384q-2.56 0-4.672-1.184a9.1 9.1 0 0 1-3.328-3.232q-1.216-2.048-1.216-4.672 0-2.625 1.216-4.672a9.1 9.1 0 0 1 3.328-3.232q2.08-1.184 4.672-1.184 2.56 0 4.64 1.184a8.9 8.9 0 0 1 3.296 3.232q1.248 2.016 1.248 4.672 0 2.625-1.248 4.672A9.1 9.1 0 0 1 33.04 55.2q-2.08 1.184-4.608 1.184m0-3.84q1.408 0 2.464-.672a4.6 4.6 0 0 0 1.696-1.856q.64-1.215.64-2.72 0-1.536-.64-2.688a4.6 4.6 0 0 0-1.696-1.856q-1.056-.705-2.464-.704-1.44 0-2.528.704a4.84 4.84 0 0 0-1.728 1.856q-.609 1.152-.608 2.688 0 1.505.608 2.72a4.84 4.84 0 0 0 1.728 1.856q1.088.672 2.528.672M.952 56V31.776h4.192v10.24l-.576-.608q.608-1.568 1.984-2.368 1.408-.832 3.264-.832 1.92 0 3.392.832a5.86 5.86 0 0 1 2.336 2.336q.832 1.472.832 3.424V56h-4.192V45.792q0-1.152-.448-1.984a3.14 3.14 0 0 0-1.248-1.28q-.768-.48-1.824-.48-1.024 0-1.824.48-.8.448-1.248 1.28-.448.832-.448 1.984V56zM94.052 24.384q-2.688 0-4.704-1.216a8.47 8.47 0 0 1-3.136-3.296q-1.12-2.08-1.12-4.608 0-2.624 1.12-4.64 1.152-2.048 3.104-3.232 1.983-1.184 4.416-1.184 2.048 0 3.584.672a7.6 7.6 0 0 1 2.656 1.856 8.3 8.3 0 0 1 1.664 2.72q.576 1.504.576 3.264 0 .448-.064.928a3 3 0 0 1-.16.832h-13.44v-3.2H99.62l-1.984 1.504q.287-1.472-.16-2.624a3.64 3.64 0 0 0-1.408-1.824q-.96-.672-2.336-.672-1.313 0-2.336.672-1.025.64-1.568 1.92-.513 1.248-.384 3.04-.129 1.6.416 2.848.576 1.215 1.664 1.888 1.12.672 2.56.672 1.44 0 2.432-.608a4.35 4.35 0 0 0 1.6-1.632l3.392 1.664q-.513 1.248-1.6 2.208-1.089.96-2.592 1.504-1.473.544-3.264.544M75.982 24.384q-2.784 0-4.864-1.312-2.048-1.344-2.816-3.616l3.136-1.504q.672 1.472 1.856 2.304 1.216.832 2.688.832 1.152 0 1.824-.512.672-.512.672-1.344 0-.512-.288-.832-.255-.352-.736-.576-.448-.256-.992-.416l-2.848-.8q-2.208-.64-3.36-1.952-1.12-1.313-1.12-3.104 0-1.6.8-2.784.832-1.216 2.272-1.888 1.473-.672 3.36-.672 2.465 0 4.352 1.184 1.889 1.185 2.688 3.328l-3.2 1.504a3.86 3.86 0 0 0-1.504-1.888 4.17 4.17 0 0 0-2.368-.704q-1.055 0-1.664.48-.608.48-.608 1.248 0 .48.256.832a1.9 1.9 0 0 0 .704.576q.48.225 1.088.416l2.784.832q2.145.64 3.296 1.92 1.185 1.28 1.184 3.136 0 1.567-.832 2.784-.831 1.185-2.304 1.856-1.471.672-3.456.672M56.598 24.384q-2.017 0-3.52-.896-1.473-.896-2.273-2.496-.767-1.6-.767-3.744V6.592h4.192v10.304q0 1.087.416 1.92.447.8 1.248 1.28a3.85 3.85 0 0 0 1.855.448q1.024 0 1.825-.448.8-.48 1.248-1.312.447-.832.447-1.984V6.592h4.193V24h-3.969v-3.424l.352.608q-.608 1.6-2.015 2.4-1.376.8-3.233.8M38.027 24.384q-2.56 0-4.672-1.184a9.1 9.1 0 0 1-3.328-3.232q-1.216-2.048-1.216-4.672 0-2.625 1.215-4.672a9.1 9.1 0 0 1 3.329-3.232q2.08-1.184 4.672-1.184 2.56 0 4.64 1.184a8.9 8.9 0 0 1 3.295 3.232q1.249 2.016 1.249 4.672 0 2.625-1.248 4.672a9.1 9.1 0 0 1-3.328 3.232q-2.08 1.185-4.608 1.184m0-3.84q1.408 0 2.463-.672a4.6 4.6 0 0 0 1.697-1.856q.64-1.215.64-2.72 0-1.536-.64-2.688a4.6 4.6 0 0 0-1.697-1.856q-1.056-.705-2.464-.704-1.44 0-2.528.704a4.84 4.84 0 0 0-1.727 1.856q-.608 1.152-.608 2.688 0 1.505.608 2.72a4.84 4.84 0 0 0 1.727 1.856q1.089.672 2.529.672M1.304 24V.16h4.16l8.928 12.128h-1.984L21.144.16h4.16V24H20.92V5.12l1.696.416L13.56 17.6h-.512L4.216 5.536l1.44-.416V24z"/></svg>